<svg xmlns="http://www.w3.org/2000/svg" width="400" height="144" viewBox="0 0 400 144" version="1.1"><path d="M 104 43.500 L 104 59 83.250 59.002 C 60.531 59.003, 57.785 59.576, 53.685 65.171 C 51.101 68.697, 51.101 75.303, 53.685 78.829 C 57.785 84.424, 60.531 84.997, 83.250 84.998 L 104 85 104 100.500 C 104 109.025, 104.360 116, 104.800 116 C 107.422 116, 108 112.987, 108 99.324 L 108 85.048 124.750 84.748 C 133.963 84.583, 126.290 84.347, 107.700 84.224 C 71.119 83.982, 70.412 83.882, 66.088 78.385 C 62.768 74.165, 63.277 68.760, 67.421 64.235 L 70.842 60.500 91.421 60.193 L 112 59.886 112 45.628 L 112 31.370 108.466 29.685 C 106.522 28.758, 104.722 28, 104.466 28 C 104.210 28, 104 34.975, 104 43.500 M 142 31.911 C 129.604 34.458, 120.832 46.029, 122.560 57.554 C 123.588 64.405, 127.883 69.920, 136.523 75.482 C 144.638 80.706, 146.417 82.728, 144.946 85.054 C 143.414 87.475, 143.879 88.012, 146.481 86.827 C 149.075 85.645, 150.577 82.743, 149.498 80.997 C 149.151 80.436, 146.310 78.357, 143.184 76.378 C 140.058 74.399, 136.444 71.817, 135.153 70.640 C 126.552 62.800, 127.062 48.184, 136.206 40.474 C 142.344 35.299, 144.134 35, 168.968 35 C 190.238 35, 192 34.866, 191.996 33.250 C 191.992 31.638, 190.158 31.488, 168.746 31.346 C 155.961 31.261, 143.925 31.515, 142 31.911 M 243.750 31.761 C 209.337 31.988, 204 32.223, 204 33.511 C 204 34.802, 208.847 35, 240.500 35 C 274.532 35, 277.011 35.118, 277.167 36.750 C 277.258 37.712, 277.392 42.325, 277.463 47 L 277.592 55.500 281.046 55.500 L 284.500 55.500 284.597 43.715 C 284.651 37.233, 284.426 31.833, 284.097 31.715 C 283.769 31.597, 265.613 31.618, 243.750 31.761 M 310.435 33.378 C 298.999 38.703, 293.409 47.047, 294.251 57.535 C 294.949 66.234, 296.961 69.294, 306.584 76.291 C 311.237 79.675, 314.852 82.943, 314.617 83.554 C 314.340 84.279, 316.073 84.697, 319.596 84.756 C 322.568 84.805, 325 84.461, 325 83.992 C 325 83.522, 321.512 80.680, 317.250 77.675 C 312.988 74.671, 308.730 71.361, 307.788 70.320 C 304.784 66.997, 302.755 60.680, 302.692 54.447 C 302.613 46.659, 305.564 40.387, 311.838 35.009 C 314.402 32.811, 316.275 31.014, 316 31.016 C 315.725 31.018, 313.221 32.081, 310.435 33.378 M 324.445 32.562 C 321.983 33.187, 319.675 33.992, 319.317 34.350 C 318.959 34.707, 328.417 35, 340.333 35 L 362 35 362 44.893 C 362 51.901, 362.365 54.917, 363.250 55.235 C 364.246 55.593, 371.152 55.503, 375.250 55.078 C 375.663 55.035, 376 49.825, 376 43.500 L 376 32 358.750 31.891 C 349.262 31.831, 338.670 31.702, 335.211 31.603 C 331.753 31.505, 326.908 31.937, 324.445 32.562 M 52.413 33.824 C 28.367 42.136, 16.793 67.467, 27.251 88.893 C 30.670 95.896, 39.768 104.522, 47.698 108.278 L 54.500 111.500 77.252 112 C 98.006 112.456, 100.003 112.354, 100.002 110.836 C 100 109.366, 98.104 109.133, 83.750 108.836 C 67.873 108.508, 67.345 108.427, 60.759 105.307 C 52.378 101.337, 44.759 93.893, 41.240 86.236 C 37.648 78.419, 37.450 65.948, 40.801 58.580 C 43.873 51.823, 48.950 45.892, 55.222 41.729 C 63.440 36.274, 69.209 35, 85.682 35 C 97.742 35, 100 34.763, 100 33.500 C 100 31.102, 59.489 31.378, 52.413 33.824 M 229.667 56.667 C 229.300 57.033, 229 59.733, 229 62.667 C 229 66.741, 229.354 68, 230.500 68 C 231.667 68, 232 66.667, 232 62 C 232 56.455, 231.354 54.979, 229.667 56.667 M 334.615 56.892 C 332.235 57.264, 330.183 58.327, 329.320 59.634 C 327.613 62.217, 328.358 63.132, 336.892 68.927 C 354.692 81.014, 356.735 95.206, 342.152 105.463 L 337.834 108.500 316.917 108.806 C 299.494 109.061, 296 109.353, 296 110.556 C 296 111.740, 298.565 112.027, 310.250 112.149 C 343.819 112.499, 346.935 112.289, 352.971 109.267 C 356.425 107.539, 359.720 104.876, 361.750 102.172 C 364.605 98.370, 365 97.088, 365 91.618 C 365 81.847, 360.884 76.516, 344.659 65.271 C 339.986 62.032, 338.901 59.499, 341.200 57.200 C 342.537 55.863, 341.497 55.815, 334.615 56.892 M 160.697 59.636 C 160.347 59.987, 164.437 63.497, 169.785 67.438 C 180.885 75.617, 182.732 77.960, 185.208 87 L 186.988 93.500 186.429 88.021 C 185.598 79.875, 182.739 75.752, 172.781 68.337 C 167.951 64.741, 164 61.405, 164 60.924 C 164 60.442, 171.537 59.913, 180.750 59.748 L 197.500 59.448 179.417 59.224 C 169.471 59.101, 161.047 59.286, 160.697 59.636 M 259 72 C 259 75.600, 259.250 76, 261.500 76 C 263.477 76, 264 75.495, 264 73.582 C 264 72.252, 264.273 70.452, 264.607 69.582 C 265.080 68.349, 264.529 68, 262.107 68 C 259.149 68, 259 68.192, 259 72 M 229.200 81.671 C 229.631 89.812, 232 90.161, 232 82.083 C 232 77.256, 231.680 76, 230.450 76 C 229.197 76, 228.958 77.087, 229.200 81.671 M 288 98.800 C 288 112.986, 288.561 116, 291.200 116 C 291.640 116, 292 109.055, 292 100.566 L 292 85.133 294.750 84.716 C 296.449 84.459, 295.684 84.242, 292.750 84.150 L 288 84 288 98.800 M 299.269 84.693 C 300.242 84.947, 301.592 84.930, 302.269 84.656 C 302.946 84.382, 302.150 84.175, 300.500 84.195 C 298.850 84.215, 298.296 84.439, 299.269 84.693 M 111.882 96.750 C 111.817 101.563, 111.705 106.929, 111.632 108.676 L 111.500 111.851 118 112.185 C 121.575 112.369, 133.275 112.515, 144 112.510 C 162.256 112.501, 163.795 112.355, 168.118 110.225 C 170.658 108.973, 173.497 107.109, 174.427 106.081 C 175.842 104.517, 175.348 104.602, 171.389 106.606 C 166.795 108.932, 165.984 109, 142.831 109 L 119 109 119 98.500 L 119 88 115.500 88 L 112 88 111.882 96.750 M 277.762 88.694 C 277.527 89.137, 277.405 93.888, 277.489 99.250 L 277.642 109 240.821 109 C 208.758 109, 204 109.194, 204 110.500 C 204 111.808, 209.056 112, 243.500 112 C 265.225 112, 283.337 111.888, 283.750 111.750 C 284.163 111.612, 284.500 106.325, 284.500 100 L 284.500 88.500 281.344 88.194 C 279.608 88.025, 277.996 88.250, 277.762 88.694" stroke="none" fill="#c18f4d" fill-rule="evenodd"/><path d="M 51.798 29.931 C 35.042 35.288, 22.819 48.888, 19.950 65.368 C 16.320 86.213, 30.165 107.332, 51.855 114.036 C 57.388 115.746, 61.174 116, 81.105 116 L 104 116 104 100.500 L 104 85 83.250 84.998 C 60.531 84.997, 57.785 84.424, 53.685 78.829 C 51.101 75.303, 51.101 68.697, 53.685 65.171 C 57.785 59.576, 60.531 59.003, 83.250 59.002 L 104 59 104 43.500 L 104 28 80.750 28.054 C 61.105 28.099, 56.616 28.390, 51.798 29.931 M 134.207 30.584 C 123.666 35.837, 116.946 47.487, 118.496 57.823 C 119.842 66.799, 123.401 71.223, 136.250 79.892 C 138.863 81.654, 141 83.524, 141 84.048 C 141 84.612, 134.297 85, 124.550 85 L 108.100 85 107.800 100.086 C 107.635 108.384, 107.687 115.359, 107.917 115.586 C 108.146 115.814, 120.971 115.990, 136.417 115.978 C 162.007 115.958, 164.878 115.785, 168.756 114.024 C 179.844 108.991, 185.375 101.477, 185.375 91.444 C 185.375 81.488, 182.548 77.077, 170.266 67.872 C 164.669 63.677, 160.369 59.964, 160.711 59.622 C 161.053 59.280, 169.327 59, 179.098 59 L 196.862 59 196.896 45.250 C 196.915 37.688, 196.691 30.712, 196.398 29.750 C 195.907 28.137, 193.651 28, 167.629 28 L 139.393 28 134.207 30.584 M 200 72 L 200 116 243.833 116 C 267.942 116, 287.854 115.814, 288.083 115.586 C 288.313 115.359, 288.365 108.148, 288.201 99.562 L 287.902 83.952 262.951 84.035 C 249.228 84.081, 237.550 83.840, 237 83.500 C 236.450 83.160, 236 82.234, 236 81.441 C 236 80.246, 238.736 80, 252 80 L 268 80 268 72 L 268 64 252 64 C 238.736 64, 236 63.754, 236 62.559 C 236 61.766, 236.452 60.838, 237.005 60.497 C 237.558 60.155, 249.258 59.916, 263.005 59.965 L 288 60.055 288 44.028 L 288 28 244 28 L 200 28 200 72 M 319.500 29.902 C 313.533 32.675, 307.463 38.413, 304.903 43.700 C 301.045 51.670, 302.423 64.387, 307.788 70.320 C 308.730 71.361, 312.988 74.671, 317.250 77.675 C 321.512 80.680, 325 83.492, 325 83.925 C 325 84.358, 318.813 84.737, 311.250 84.766 C 303.688 84.795, 296.262 84.860, 294.750 84.910 L 292 85 292 100.500 L 292 116 320.250 115.978 C 346.005 115.958, 348.876 115.785, 352.756 114.024 C 359.197 111.101, 363.807 107.184, 366.800 102.094 C 369.020 98.316, 369.487 96.345, 369.425 91 C 369.303 80.402, 366.624 76.539, 352.038 65.928 L 344.576 60.500 362.288 60.227 L 380 59.954 380 43.977 L 380 28 351.750 28.022 C 326.347 28.042, 323.097 28.231, 319.500 29.902 M 142 31.911 C 129.604 34.458, 120.832 46.029, 122.560 57.554 C 123.587 64.401, 127.883 69.921, 136.507 75.472 C 145.115 81.013, 146.231 82.398, 144.733 85.686 C 143.696 87.963, 143.425 88, 127.839 88 L 112 88 111.882 96.750 C 111.817 101.563, 111.705 106.962, 111.632 108.750 C 111.508 111.814, 111.699 112.002, 115 112.045 C 116.925 112.070, 127.098 112.340, 137.606 112.646 C 159.331 113.278, 165.751 112.411, 171.795 108.033 C 182.840 100.033, 184.653 87.796, 176.249 77.978 C 174.301 75.702, 169.134 71.336, 164.767 68.276 C 160.400 65.216, 156.606 62.137, 156.336 61.434 C 156.067 60.731, 156.346 59.221, 156.958 58.078 C 158.017 56.099, 158.881 56, 175.035 56 L 192 56 191.996 43.750 L 191.992 31.500 168.746 31.346 C 155.961 31.261, 143.925 31.515, 142 31.911 M 243.750 31.761 L 204 32.023 204 72.011 L 204 112 243.500 112 C 265.225 112, 283.337 111.888, 283.750 111.750 C 284.163 111.612, 284.500 106.325, 284.500 100 L 284.500 88.500 281 88.336 C 279.075 88.246, 267.262 88.134, 254.750 88.086 L 232 88 232 82 L 232 76 248 76 L 264 76 264 73.582 C 264 72.252, 264.273 70.452, 264.607 69.582 C 265.145 68.179, 263.340 68, 248.607 68 L 232 68 232 62 L 232 56 254.750 55.914 C 267.262 55.866, 279.075 55.754, 281 55.664 L 284.500 55.500 284.597 43.715 C 284.651 37.233, 284.426 31.833, 284.097 31.715 C 283.769 31.597, 265.613 31.618, 243.750 31.761 M 327.500 31.791 C 322.178 32.694, 318.288 34.615, 314.257 38.330 C 307.204 44.832, 305.265 50.475, 307.118 59.114 C 308.465 65.394, 312.104 69.660, 321.560 76.040 C 329.254 81.233, 330.586 83.037, 328.961 86.072 C 328.009 87.852, 326.706 88, 311.965 88 L 296 88 296 100 L 296 112 310.250 112.149 C 343.819 112.499, 346.935 112.289, 352.971 109.267 C 356.425 107.539, 359.720 104.876, 361.750 102.172 C 364.605 98.370, 365 97.088, 365 91.618 C 365 81.847, 360.884 76.516, 344.659 65.271 C 339.970 62.021, 338.796 59.243, 341.250 57.209 C 341.938 56.639, 349.919 55.939, 359 55.653 C 368.075 55.366, 375.613 55.102, 375.750 55.066 C 375.887 55.030, 376 49.825, 376 43.500 L 376 32 358.750 31.891 C 349.262 31.831, 338.800 31.707, 335.500 31.617 C 332.200 31.526, 328.600 31.604, 327.500 31.791 M 52.413 33.824 C 28.367 42.136, 16.793 67.467, 27.251 88.893 C 30.670 95.896, 39.768 104.522, 47.698 108.278 L 54.500 111.500 77.123 112 L 99.746 112.500 100.263 101 C 100.547 94.675, 100.578 89.162, 100.331 88.750 C 100.084 88.337, 90.750 88, 79.589 88 C 60.190 88, 59.150 87.901, 55.990 85.750 C 50.312 81.885, 48.500 78.560, 48.500 72 C 48.500 65.440, 50.312 62.115, 55.990 58.250 C 59.150 56.099, 60.190 56, 79.589 56 C 90.750 56, 100.072 55.662, 100.305 55.250 C 100.538 54.837, 100.507 49.438, 100.236 43.250 L 99.743 32 78.622 32.033 C 61.122 32.060, 56.628 32.367, 52.413 33.824" stroke="none" fill="#f1dda5" fill-rule="evenodd"/></svg>