<svg xmlns="http://www.w3.org/2000/svg" width="64" height="64" viewBox="0 0 64 64" version="1.1"><path d="M 16.984 18.824 L 13.500 20.648 11.250 25.036 L 9 29.424 9 32 L 9 34.576 11.250 38.964 L 13.500 43.352 16.984 45.176 L 20.469 47 24 47 L 27.531 47 31.016 45.176 L 34.500 43.352 36.750 38.964 L 39 34.576 39 32 L 39 29.424 36.750 25.036 L 34.500 20.648 31.016 18.824 L 27.531 17 24 17 L 20.469 17 16.984 18.824 M 41 20 L 41 23 42.500 23 L 44 23 44 34.132 L 44 45.264 41.873 48.705 L 39.747 52.146 43.092 51.823 L 46.436 51.500 48.718 48.102 L 51 44.704 51 33.852 L 51 23 52 23 L 53 23 53 20 L 53 17 47 17 L 41 17 41 20 M 20.409 24.972 L 18.318 25.818 17.038 28.909 L 15.757 32 17.035 35.084 L 18.312 38.168 20.830 39.125 L 23.347 40.083 26.234 39.449 L 29.121 38.815 30.711 35.479 L 32.302 32.143 30.995 28.988 L 29.688 25.832 27.279 24.916 L 24.870 24 23.685 24.063 L 22.500 24.127 20.409 24.972" stroke="none" fill="#f4f7f4" fill-rule="evenodd"/><path d="M 3.400 3.400 L 0 6.800 0 32 L 0 57.200 3.400 60.600 L 6.800 64 32.055 64 L 57.310 64 61.155 59.958 L 65 55.916 65 30.791 L 65 5.667 64.467 6.200 L 63.933 6.733 60.567 3.367 L 57.200 0 32 0 L 6.800 0 3.400 3.400 M 0.435 32 L 0.435 57.500 0.747 44.750 L 1.060 32 0.747 19.250 L 0.435 6.500 0.435 32 M 16.984 18.824 L 13.500 20.648 11.250 25.036 L 9 29.424 9 32 L 9 34.576 11.250 38.964 L 13.500 43.352 16.984 45.176 L 20.469 47 24 47 L 27.531 47 31.016 45.176 L 34.500 43.352 36.750 38.964 L 39 34.576 39 32 L 39 29.424 36.750 25.036 L 34.500 20.648 31.016 18.824 L 27.531 17 24 17 L 20.469 17 16.984 18.824 M 41 20 L 41 23 42.500 23 L 44 23 44 34.132 L 44 45.264 41.873 48.705 L 39.747 52.146 43.092 51.823 L 46.436 51.500 48.718 48.102 L 51 44.704 51 33.852 L 51 23 52 23 L 53 23 53 20 L 53 17 47 17 L 41 17 41 20 M 20.409 24.972 L 18.318 25.818 17.038 28.909 L 15.757 32 17.035 35.084 L 18.312 38.168 20.830 39.125 L 23.347 40.083 26.234 39.449 L 29.121 38.815 30.711 35.479 L 32.302 32.143 30.995 28.988 L 29.688 25.832 27.279 24.916 L 24.870 24 23.685 24.063 L 22.500 24.127 20.409 24.972" stroke="none" fill="#29a329" fill-rule="evenodd"/></svg>