<svg xmlns="http://www.w3.org/2000/svg" width="512" height="512" viewBox="0 0 512 512" version="1.1"><path d="" stroke="none" fill="#088ccc" fill-rule="evenodd"/><path d="M 228 1.100 C 172.021 7.373, 118.928 32.402, 77.621 71.990 C 36.435 111.462, 8.193 168.448, 1.512 225.559 C -0.424 242.111, -0.424 269.889, 1.512 286.441 C 9.110 351.394, 43.285 413.393, 94.395 454.947 C 121.742 477.180, 158.874 495.849, 192.905 504.476 C 215.546 510.215, 226.433 511.430, 255.500 511.460 C 285.006 511.491, 294.335 510.507, 316.797 504.996 C 354.082 495.848, 390.274 477.498, 420.687 452.322 C 468.801 412.494, 503.443 349.174, 510.042 289 C 510.675 283.225, 511.599 277.719, 512.096 276.764 C 513.374 274.309, 513.281 233.708, 512 234.500 C 511.405 234.868, 511 233.675, 511 231.552 C 511 225.927, 508.187 208.523, 505.334 196.500 C 496.518 159.339, 477.660 121.921, 452.322 91.313 C 411.798 42.358, 350.103 8.959, 286.441 1.512 C 272.546 -0.113, 240.822 -0.337, 228 1.100 M 172.477 105.966 C 141.065 110.719, 115.924 133.516, 108.023 164.410 C 106.072 172.038, 106 175.280, 106 255.500 C 106 335.720, 106.072 338.962, 108.023 346.590 C 115.815 377.061, 140.603 400.025, 171 404.935 C 175.010 405.583, 200.242 405.988, 236.872 405.992 C 303.106 406.001, 309.020 406.424, 327.470 412.467 C 343.938 417.862, 357.155 425.260, 370.339 436.464 L 377.178 442.276 385.100 434.401 L 393.021 426.526 316.006 349.506 L 238.991 272.487 256 255.500 L 273.008 238.514 335.467 300.967 L 397.926 363.420 399.996 358.742 C 401.134 356.168, 402.951 350.602, 404.033 346.372 C 405.912 339.026, 406 334.944, 406 255.500 C 406 175.712, 405.919 171.997, 404.006 164.410 C 397.203 137.426, 376.641 116.293, 348.973 107.850 L 341.500 105.570 259.500 105.388 C 214.400 105.288, 175.239 105.548, 172.477 105.966 M 0.425 256 C 0.425 267.825, 0.569 272.663, 0.746 266.750 C 0.923 260.837, 0.923 251.162, 0.746 245.250 C 0.569 239.338, 0.425 244.175, 0.425 256" stroke="none" fill="#048ccc" fill-rule="evenodd"/></svg>