<svg xmlns="http://www.w3.org/2000/svg" width="1024" height="1024" viewBox="0 0 1024 1024" version="1.1"><path d="M 474 10.530 C 412.998 15.550, 356.963 29.947, 303 54.465 C 194.567 103.730, 103.730 194.567, 54.465 303 C -5.943 435.958, -5.943 588.042, 54.465 721 C 90.401 800.097, 149.238 871.118, 221.214 922.284 C 339.848 1006.617, 489.542 1035.106, 631.761 1000.417 C 740.518 973.891, 836.953 911.762, 907.145 823 C 962.783 752.643, 998.734 667.576, 1010.477 578.500 C 1018.730 515.894, 1015.361 453.506, 1000.417 392.239 C 969.907 267.150, 892.415 158.881, 782.832 88.236 C 692.804 30.198, 579.977 1.809, 474 10.530 M 482 50.121 C 399.065 55.233, 316.696 84.016, 247.893 131.929 C 165.240 189.487, 104.505 270.922, 72.202 367.500 C 45.144 448.394, 41.931 539.180, 63.087 625 C 72.596 663.572, 89.872 706.522, 109.949 741.500 C 162.612 833.252, 244.626 904.153, 342.910 942.894 C 364.182 951.279, 375.159 954.813, 397.652 960.517 C 490.982 984.187, 589.743 978.325, 679 943.818 C 766.418 910.022, 843.248 848.722, 895.600 771 C 914.574 742.831, 931.980 709.620, 943.818 679 C 978.325 589.743, 984.187 490.982, 960.517 397.652 C 954.813 375.159, 951.279 364.182, 942.894 342.910 C 904.153 244.626, 833.252 162.612, 741.500 109.949 C 663.762 65.329, 573.372 44.490, 482 50.121 M 494.698 184.590 C 484.281 186.472, 470.849 191.627, 460.778 197.608 C 449.632 204.227, 434.227 219.632, 427.608 230.778 C 407.598 264.474, 408.395 305.558, 429.676 337.353 C 432.604 341.727, 434.971 345.800, 434.936 346.403 C 434.901 347.006, 403.505 401.725, 365.166 468 L 295.460 588.500 282.980 588.182 C 253.162 587.424, 229.158 596.881, 208.520 617.520 C 187.846 638.194, 177.950 663.433, 179.318 692 C 181.284 733.062, 207.817 768.479, 246.500 781.676 C 312.883 804.324, 381.584 752.167, 377.694 682.075 C 376.700 664.152, 371.106 647.262, 361.324 632.647 C 358.396 628.273, 356 624.355, 356 623.940 C 356 623.525, 387.403 568.836, 425.784 502.409 L 495.569 381.632 512.532 381.632 L 529.496 381.632 598.857 501.566 C 637.005 567.530, 668.416 622.175, 668.658 623 C 668.900 623.825, 666.624 628.259, 663.599 632.854 C 657.465 642.173, 652.928 652.333, 649.771 663.825 C 648.034 670.148, 647.662 674.318, 647.662 687.500 C 647.662 700.682, 648.034 704.852, 649.771 711.175 C 659.096 745.115, 682.704 770.829, 714.500 781.676 C 780.883 804.324, 849.584 752.167, 845.694 682.075 C 843.509 642.686, 818.194 608.312, 781.115 594.384 C 768.411 589.613, 757.002 587.801, 742.057 588.182 L 729.613 588.500 659.807 467.693 C 621.413 401.249, 590 346.483, 590 345.991 C 590 345.498, 591.971 342.262, 594.379 338.798 C 622.225 298.752, 616.319 243.700, 580.598 210.331 C 557.267 188.537, 525.511 179.021, 494.698 184.590" stroke="none" fill="#1f3a92" fill-rule="evenodd"/><path d="M 482 50.121 C 399.065 55.233, 316.696 84.016, 247.893 131.929 C 165.240 189.487, 104.505 270.922, 72.202 367.500 C 45.144 448.394, 41.931 539.180, 63.087 625 C 72.596 663.572, 89.872 706.522, 109.949 741.500 C 162.612 833.252, 244.626 904.153, 342.910 942.894 C 364.182 951.279, 375.159 954.813, 397.652 960.517 C 490.982 984.187, 589.743 978.325, 679 943.818 C 766.418 910.022, 843.248 848.722, 895.600 771 C 914.574 742.831, 931.980 709.620, 943.818 679 C 978.325 589.743, 984.187 490.982, 960.517 397.652 C 954.813 375.159, 951.279 364.182, 942.894 342.910 C 904.153 244.626, 833.252 162.612, 741.500 109.949 C 663.762 65.329, 573.372 44.490, 482 50.121 M 167.469 145.250 L 161.500 151.500 167.750 145.531 C 171.188 142.249, 174 139.436, 174 139.281 C 174 138.542, 173.013 139.444, 167.469 145.250 M 855 144.500 C 857.987 147.525, 860.657 150, 860.932 150 C 861.207 150, 858.987 147.525, 856 144.500 C 853.013 141.475, 850.343 139, 850.068 139 C 849.793 139, 852.013 141.475, 855 144.500 M 144.469 168.250 L 138.500 174.500 144.750 168.531 C 148.188 165.249, 151 162.436, 151 162.281 C 151 161.542, 150.013 162.444, 144.469 168.250 M 879 168.500 C 881.987 171.525, 884.657 174, 884.932 174 C 885.207 174, 882.987 171.525, 880 168.500 C 877.013 165.475, 874.343 163, 874.068 163 C 873.793 163, 876.013 165.475, 879 168.500 M 494.698 184.590 C 484.281 186.472, 470.849 191.627, 460.778 197.608 C 449.632 204.227, 434.227 219.632, 427.608 230.778 C 407.598 264.474, 408.395 305.558, 429.676 337.353 C 432.604 341.727, 434.971 345.800, 434.936 346.403 C 434.901 347.006, 403.505 401.725, 365.166 468 L 295.460 588.500 282.980 588.182 C 253.162 587.424, 229.158 596.881, 208.520 617.520 C 187.846 638.194, 177.950 663.433, 179.318 692 C 181.284 733.062, 207.817 768.479, 246.500 781.676 C 312.883 804.324, 381.584 752.167, 377.694 682.075 C 376.700 664.152, 371.106 647.262, 361.324 632.647 C 358.396 628.273, 356 624.355, 356 623.940 C 356 623.525, 387.403 568.836, 425.784 502.409 L 495.569 381.632 512.532 381.632 L 529.496 381.632 598.857 501.566 C 637.005 567.530, 668.416 622.175, 668.658 623 C 668.900 623.825, 666.624 628.259, 663.599 632.854 C 657.465 642.173, 652.928 652.333, 649.771 663.825 C 648.034 670.148, 647.662 674.318, 647.662 687.500 C 647.662 700.682, 648.034 704.852, 649.771 711.175 C 659.096 745.115, 682.704 770.829, 714.500 781.676 C 780.883 804.324, 849.584 752.167, 845.694 682.075 C 843.509 642.686, 818.194 608.312, 781.115 594.384 C 768.411 589.613, 757.002 587.801, 742.057 588.182 L 729.613 588.500 659.807 467.693 C 621.413 401.249, 590 346.483, 590 345.991 C 590 345.498, 591.971 342.262, 594.379 338.798 C 622.225 298.752, 616.319 243.700, 580.598 210.331 C 557.267 188.537, 525.511 179.021, 494.698 184.590 M 144 855.500 C 146.987 858.525, 149.657 861, 149.932 861 C 150.207 861, 147.987 858.525, 145 855.500 C 142.013 852.475, 139.343 850, 139.068 850 C 138.793 850, 141.013 852.475, 144 855.500 M 168 879.500 C 170.987 882.525, 173.657 885, 173.932 885 C 174.207 885, 171.987 882.525, 169 879.500 C 166.013 876.475, 163.343 874, 163.068 874 C 162.793 874, 165.013 876.475, 168 879.500" stroke="none" fill="#fbfbfb" fill-rule="evenodd"/></svg>