<svg xmlns="http://www.w3.org/2000/svg" width="512" height="512" viewBox="0 0 512 512" version="1.1"><path d="M 295.020 7.076 C 291.562 8.644, 270.139 29.586, 201.184 98.804 C 152.038 148.137, 109.651 191.334, 106.990 194.798 C 100.765 202.903, 93.898 216.298, 90.637 226.697 C 83.531 249.356, 85.801 279.737, 96.137 300.297 C 103.833 315.606, 107.247 319.526, 150.361 362.570 C 189.741 401.885, 192.812 404.717, 197.264 405.820 C 207.904 408.455, 216.319 406.510, 222.872 399.901 C 227.741 394.991, 229.952 389.558, 229.978 382.446 C 230.017 371.586, 228.891 370.158, 186.180 326.918 C 164.906 305.381, 146.335 285.901, 144.910 283.630 C 135.074 267.944, 134.596 247.464, 143.685 231.031 C 147.690 223.789, 182.976 187.574, 277.202 94 C 322.114 49.398, 327.242 43.979, 329.023 39.239 C 335.463 22.100, 323.730 5.044, 305.500 5.044 C 301.605 5.044, 297.928 5.757, 295.020 7.076" stroke="none" fill="#0c0c0b" fill-rule="evenodd"/><path d="M 253.885 116.814 C 238.821 132.041, 225.596 145.596, 224.498 146.935 C 222.534 149.329, 222.560 149.325, 226.042 146.725 C 238.107 137.716, 256.040 134.853, 271.344 139.493 C 281.470 142.562, 286.654 146.709, 311.867 171.907 C 325.426 185.457, 338.090 197.283, 340.010 198.186 C 357.043 206.197, 376.250 194.100, 376.250 175.361 C 376.250 165.037, 374.845 163.174, 344.247 132.927 C 313.508 102.542, 308.755 98.949, 290.829 92.542 L 281.275 89.127 253.885 116.814 M 236.500 231.922 C 228.388 233.932, 220.172 241.743, 217.996 249.516 C 214.303 262.704, 222.166 277.363, 234.911 281.056 C 237.314 281.752, 268.914 281.997, 330.500 281.798 C 433.338 281.465, 425.643 282.023, 433.333 274.333 C 438.709 268.958, 440.456 264.579, 440.448 256.500 C 440.437 246.232, 435.585 238.461, 426 233.362 C 422.667 231.589, 418.147 231.492, 331 231.340 C 280.675 231.251, 238.150 231.514, 236.500 231.922 M 343.942 312.948 C 338.541 314.587, 335.768 316.992, 311 341.509 C 284.082 368.155, 280.318 371.026, 268.500 373.929 C 262.116 375.496, 249.940 375.505, 243.500 373.946 C 237.125 372.404, 229.606 368.750, 224.500 364.713 L 220.500 361.550 223.405 365.025 C 230.042 372.965, 231.959 384.161, 228.110 392.500 C 225.619 397.896, 219.666 403.580, 214.399 405.592 C 210.113 407.228, 202.071 407.181, 196 405.484 C 191.383 404.193, 203.074 412.043, 212.500 416.563 C 228.358 424.168, 234.763 425.499, 255.500 425.499 C 276.052 425.500, 283.855 423.972, 298.619 417.056 C 312.458 410.573, 318.646 405.541, 345.297 379.097 C 374.041 350.575, 376.200 347.651, 376.200 337.243 C 376.200 330.331, 374.465 325.738, 369.882 320.519 C 363.745 313.529, 352.675 310.298, 343.942 312.948" stroke="none" fill="#dba248" fill-rule="evenodd"/></svg>